<svg width="22" height="22" viewBox="0 0 22 22" fill="none" xmlns="http://www.w3.org/2000/svg">
<path fill-rule="evenodd" clip-rule="evenodd" d="M0.709793 0.0272317C0.970193 -0.0448953 1.24926 0.0286242 1.44032 0.219687L21.4403 20.2197C21.7332 20.5126 21.7332 20.9875 21.4403 21.2803C21.1474 21.5732 20.6725 21.5732 20.3797 21.2803L12.91 13.8107L11.6474 15.0732C10.9647 15.756 9.8573 15.758 9.17325 15.0739L2.37974 8.28039C0.722398 6.62306 0.174117 4.68924 0.0380831 3.19292C-0.0298785 2.44538 0.00398696 1.80008 0.0552084 1.33907C0.0846322 1.07425 0.121044 0.816308 0.182044 0.569496C0.246583 0.310204 0.452575 0.0984774 0.709793 0.0272317ZM11.8493 12.75L1.4694 2.37008L1.53199 3.05786C1.64609 4.31161 2.09805 5.87739 3.44035 7.21969L10.41 14.1894L11.8493 12.75Z" fill="white"/>
<path d="M15.8797 0.719687C16.1726 0.426794 16.6474 0.426794 16.9403 0.719687C17.2332 1.01258 17.2332 1.48745 16.9403 1.78035L14.0445 4.67616C13.5906 5.13005 13.6001 5.77569 13.8942 6.26589L14.0589 6.54045L17.8797 2.71969C18.1726 2.42679 18.6474 2.42679 18.9403 2.71969C19.2332 3.01258 19.2332 3.48745 18.9403 3.78035L15.1196 7.60111L15.3941 7.76585C15.8843 8.05997 16.53 8.06939 16.9839 7.6155L19.8797 4.71969C20.1726 4.42679 20.6474 4.42679 20.9403 4.71969C21.2332 5.01258 21.2332 5.48745 20.9403 5.78035L18.0445 8.67616C17.1522 9.56845 15.7672 9.73896 14.6851 9.08973L14.0263 8.69442L13.4403 9.28035C13.1474 9.57324 12.6726 9.57324 12.3797 9.28035C12.0868 8.98746 12.0868 8.51258 12.3797 8.21969L12.9656 7.63376L12.5703 6.97491C11.9211 5.89285 12.0916 4.50779 12.9839 3.6155L15.8797 0.719687Z" fill="white"/>
<path d="M5.87968 14.7197C6.17257 14.4268 6.64744 14.4268 6.94034 14.7197C7.23323 15.0126 7.23323 15.4875 6.94034 15.7803L1.44034 21.2803C1.14744 21.5732 0.672569 21.5732 0.379676 21.2803C0.0867831 20.9875 0.0867831 20.5126 0.379676 20.2197L5.87968 14.7197Z" fill="white"/>
</svg>
