<svg width="24" height="24" viewBox="0 0 24 24" fill="none" xmlns="http://www.w3.org/2000/svg">
<path fill-rule="evenodd" clip-rule="evenodd" d="M7.7679 1.25H16.2321C17.0449 1.24999 17.7006 1.24999 18.2315 1.29336C18.7781 1.33803 19.2582 1.43239 19.7025 1.65873C20.4081 2.01825 20.9817 2.59193 21.3413 3.29754C21.5676 3.74175 21.662 4.2219 21.7066 4.76853C21.7216 4.95196 21.7314 5.15028 21.7379 5.36482C21.7458 5.40867 21.75 5.45385 21.75 5.5C21.75 5.53367 21.7478 5.56683 21.7435 5.59932C21.75 5.94762 21.75 6.3355 21.75 6.76788V14.2321C21.75 15.045 21.75 15.7006 21.7066 16.2315C21.662 16.7781 21.5676 17.2582 21.3413 17.7025C20.9899 18.3922 20.4338 18.9558 19.75 19.3166L19.75 21.2202C19.75 21.3424 19.7501 21.4748 19.7407 21.5895C19.7301 21.7192 19.7039 21.8907 19.6138 22.0675C19.4939 22.3027 19.3027 22.4939 19.0675 22.6138C18.8907 22.7039 18.7192 22.7301 18.5895 22.7407C18.4748 22.7501 18.3424 22.75 18.2202 22.75H16.2798C16.1576 22.75 16.0252 22.7501 15.9105 22.7407C15.7808 22.7301 15.6093 22.7039 15.4325 22.6138C15.1973 22.4939 15.0061 22.3027 14.8862 22.0675C14.7961 21.8907 14.7699 21.7192 14.7593 21.5895C14.7499 21.4748 14.75 21.3424 14.75 21.2202L14.75 19.75H9.25L9.25 21.2202C9.25003 21.3424 9.25006 21.4748 9.2407 21.5895C9.2301 21.7192 9.20386 21.8907 9.11376 22.0675C8.99392 22.3027 8.80269 22.4939 8.56749 22.6138C8.39066 22.7039 8.21923 22.7301 8.08947 22.7407C7.97483 22.7501 7.84239 22.75 7.72023 22.75H5.77977C5.65761 22.75 5.52517 22.7501 5.41053 22.7407C5.28077 22.7301 5.10934 22.7039 4.93251 22.6138C4.69731 22.4939 4.50608 22.3027 4.38624 22.0675C4.29614 21.8907 4.2699 21.7192 4.2593 21.5895C4.24994 21.4748 4.24997 21.3424 4.25 21.2202L4.25 19.3166C3.56616 18.9558 3.01014 18.3922 2.65873 17.7025C2.43239 17.2582 2.33803 16.7781 2.29336 16.2315C2.24999 15.7006 2.24999 15.0449 2.25 14.2321V6.7679C2.25 6.33552 2.24999 5.94762 2.25652 5.59932C2.25222 5.56683 2.25 5.53367 2.25 5.5C2.25 5.45385 2.25417 5.40867 2.26215 5.36482C2.26857 5.15028 2.27838 4.95196 2.29336 4.76853C2.33803 4.2219 2.43239 3.74175 2.65873 3.29754C3.01825 2.59193 3.59193 2.01825 4.29754 1.65873C4.74175 1.43239 5.2219 1.33803 5.76853 1.29336C6.29944 1.24999 6.95506 1.24999 7.7679 1.25ZM3.75054 6.25C3.75003 6.42064 3.75 6.60346 3.75 6.8V11.25H20.25V6.8C20.25 6.60346 20.25 6.42064 20.2495 6.25H3.75054ZM20.1985 4.75H3.80154C3.84079 4.38113 3.90548 4.15467 3.99524 3.97852C4.21095 3.55516 4.55516 3.21095 4.97852 2.99524C5.17604 2.8946 5.4368 2.82547 5.89068 2.78838C6.35331 2.75058 6.94755 2.75 7.8 2.75H16.2C17.0525 2.75 17.6467 2.75058 18.1093 2.78838C18.5632 2.82547 18.824 2.8946 19.0215 2.99524C19.4448 3.21095 19.789 3.55516 20.0048 3.97852C20.0945 4.15467 20.1592 4.38113 20.1985 4.75ZM20.25 12.75H3.75V14.2C3.75 15.0525 3.75058 15.6467 3.78838 16.1093C3.82547 16.5632 3.8946 16.824 3.99524 17.0215C4.21095 17.4448 4.55516 17.789 4.97852 18.0048C5.17604 18.1054 5.4368 18.1745 5.89068 18.2116C6.35331 18.2494 6.94755 18.25 7.8 18.25H16.2C17.0525 18.25 17.6467 18.2494 18.1093 18.2116C18.5632 18.1745 18.824 18.1054 19.0215 18.0048C19.4448 17.789 19.789 17.4448 20.0048 17.0215C20.1054 16.824 20.1745 16.5632 20.2116 16.1093C20.2494 15.6467 20.25 15.0525 20.25 14.2V12.75ZM16.25 19.75V21.2C16.25 21.2176 16.25 21.2343 16.25 21.25C16.2657 21.25 16.2824 21.25 16.3 21.25H18.2C18.2176 21.25 18.2343 21.25 18.25 21.25C18.25 21.2343 18.25 21.2176 18.25 21.2V19.7051C18.2438 19.7056 18.2377 19.7061 18.2315 19.7066C17.7045 19.7497 17.0546 19.75 16.25 19.75ZM7.75 19.75C6.94543 19.75 6.29554 19.7497 5.76853 19.7066C5.76235 19.7061 5.75617 19.7056 5.75 19.7051V21.2C5.75 21.2176 5.75 21.2343 5.75001 21.25C5.76575 21.25 5.78236 21.25 5.8 21.25H7.7C7.71764 21.25 7.73425 21.25 7.74999 21.25C7.75 21.2343 7.75 21.2176 7.75 21.2V19.75ZM5.75 15.5C5.75 15.0858 6.08579 14.75 6.5 14.75H8C8.41421 14.75 8.75 15.0858 8.75 15.5C8.75 15.9142 8.41421 16.25 8 16.25H6.5C6.08579 16.25 5.75 15.9142 5.75 15.5ZM15.25 15.5C15.25 15.0858 15.5858 14.75 16 14.75H17.5C17.9142 14.75 18.25 15.0858 18.25 15.5C18.25 15.9142 17.9142 16.25 17.5 16.25H16C15.5858 16.25 15.25 15.9142 15.25 15.5Z" fill="white"/>
</svg>
